<svg xmlns="http://www.w3.org/2000/svg" style="display: none;">
  <!-- Dashboard & Analytics Icons -->
  <symbol id="chart-pie" viewBox="0 0 24 24" fill="none" stroke="currentColor" stroke-width="1.8" stroke-linecap="round" stroke-linejoin="round">
    <path d="M21.21 15.89A10 10 0 1 1 8 2.83"/>
    <path d="M22 12A10 10 0 0 0 12 2v10h10z"/>
  </symbol>
  
  <symbol id="briefcase" viewBox="0 0 24 24" fill="none" stroke="currentColor" stroke-width="1.8" stroke-linecap="round" stroke-linejoin="round">
    <rect x="2" y="7" width="20" height="14" rx="2" ry="2"/>
    <path d="M16 21V5a2 2 0 0 0-2-2h-4a2 2 0 0 0-2 2v16"/>
  </symbol>
  
  <symbol id="alert" viewBox="0 0 24 24" fill="none" stroke="currentColor" stroke-width="1.8" stroke-linecap="round" stroke-linejoin="round">
    <path d="M10.29 3.86L1.82 18a2 2 0 0 0 1.71 3h16.94a2 2 0 0 0 1.71-3L13.71 3.86a2 2 0 0 0-3.42 0z"/>
    <line x1="12" y1="9" x2="12" y2="13"/>
    <line x1="12" y1="17" x2="12.01" y2="17"/>
  </symbol>
  
  <symbol id="bolt" viewBox="0 0 24 24" fill="none" stroke="currentColor" stroke-width="1.8" stroke-linecap="round" stroke-linejoin="round">
    <polygon points="13,2 3,14 12,14 11,22 21,10 12,10 13,2"/>
  </symbol>
  
  <!-- Search & Navigation Icons -->
  <symbol id="search" viewBox="0 0 24 24" fill="none" stroke="currentColor" stroke-width="1.8" stroke-linecap="round" stroke-linejoin="round">
    <circle cx="11" cy="11" r="8"/>
    <path d="m21 21-4.35-4.35"/>
  </symbol>
  
  <symbol id="robot" viewBox="0 0 24 24" fill="none" stroke="currentColor" stroke-width="1.8" stroke-linecap="round" stroke-linejoin="round">
    <rect x="3" y="11" width="18" height="11" rx="2" ry="2"/>
    <circle cx="12" cy="5" r="2"/>
    <path d="M12 7v4"/>
    <line x1="8" y1="16" x2="8" y2="16"/>
    <line x1="16" y1="16" x2="16" y2="16"/>
  </symbol>
  
  <!-- File & Document Icons -->
  <symbol id="folder" viewBox="0 0 24 24" fill="none" stroke="currentColor" stroke-width="1.8" stroke-linecap="round" stroke-linejoin="round">
    <path d="M22 19a2 2 0 0 1-2 2H4a2 2 0 0 1-2-2V5a2 2 0 0 1 2-2h5l2 3h9a2 2 0 0 1 2 2z"/>
  </symbol>
  
  <symbol id="file" viewBox="0 0 24 24" fill="none" stroke="currentColor" stroke-width="1.8" stroke-linecap="round" stroke-linejoin="round">
    <path d="M14,2H6A2,2 0 0,0 4,4V20A2,2 0 0,0 6,22H18A2,2 0 0,0 20,20V8L14,2Z"/>
    <polyline points="14,2 14,8 20,8"/>
  </symbol>
  
  <!-- Communication Icons -->
  <symbol id="chat" viewBox="0 0 24 24" fill="none" stroke="currentColor" stroke-width="1.8" stroke-linecap="round" stroke-linejoin="round">
    <path d="M21 15a2 2 0 0 1-2 2H7l-4 4V5a2 2 0 0 1 2-2h14a2 2 0 0 1 2 2z"/>
  </symbol>
  
  <symbol id="send" viewBox="0 0 24 24" fill="none" stroke="currentColor" stroke-width="1.8" stroke-linecap="round" stroke-linejoin="round">
    <line x1="22" y1="2" x2="11" y2="13"/>
    <polygon points="22,2 15,22 11,13 2,9 22,2"/>
  </symbol>
  
  <!-- Action Icons -->
  <symbol id="refresh" viewBox="0 0 24 24" fill="none" stroke="currentColor" stroke-width="1.8" stroke-linecap="round" stroke-linejoin="round">
    <polyline points="23 4 23 10 17 10"/>
    <polyline points="1 20 1 14 7 14"/>
    <path d="M20.49 9A9 9 0 0 0 5.64 5.64L1 10m22 4-4.64 4.36A9 9 0 0 1 3.51 15"/>
  </symbol>
  
  <symbol id="close" viewBox="0 0 24 24" fill="none" stroke="currentColor" stroke-width="1.8" stroke-linecap="round" stroke-linejoin="round">
    <line x1="18" y1="6" x2="6" y2="18"/>
    <line x1="6" y1="6" x2="18" y2="18"/>
  </symbol>
  
  <!-- Security & Protection Icons -->
  <symbol id="shield" viewBox="0 0 24 24" fill="none" stroke="currentColor" stroke-width="1.8" stroke-linecap="round" stroke-linejoin="round">
    <path d="M12 22s8-4 8-10V5l-8-3-8 3v7c0 6 8 10 8 10z"/>
  </symbol>
  
  <!-- Tender & Business Icons -->
  <symbol id="building" viewBox="0 0 24 24" fill="none" stroke="currentColor" stroke-width="1.8" stroke-linecap="round" stroke-linejoin="round">
    <path d="M6 22V4a2 2 0 0 1 2-2h8a2 2 0 0 1 2 2v18Z"/>
    <path d="M6 12H4a2 2 0 0 0-2 2v8h20v-8a2 2 0 0 0-2-2h-2"/>
    <path d="M10 6h4"/>
    <path d="M10 10h4"/>
    <path d="M10 14h4"/>
    <path d="M10 18h4"/>
  </symbol>
  
  <symbol id="clock" viewBox="0 0 24 24" fill="none" stroke="currentColor" stroke-width="1.8" stroke-linecap="round" stroke-linejoin="round">
    <circle cx="12" cy="12" r="10"/>
    <polyline points="12,6 12,12 16,14"/>
  </symbol>
  
  <symbol id="users" viewBox="0 0 24 24" fill="none" stroke="currentColor" stroke-width="1.8" stroke-linecap="round" stroke-linejoin="round">
    <path d="M16 21v-2a4 4 0 0 0-4-4H6a4 4 0 0 0-4 4v2"/>
    <circle cx="9" cy="7" r="4"/>
    <path d="M22 21v-2a4 4 0 0 0-3-3.87"/>
    <path d="M16 3.13a4 4 0 0 1 0 7.75"/>
  </symbol>
  
  <!-- Contact & Info Icons -->
  <symbol id="mail" viewBox="0 0 24 24" fill="none" stroke="currentColor" stroke-width="1.8" stroke-linecap="round" stroke-linejoin="round">
    <path d="M4 4h16c1.1 0 2 .9 2 2v12c0 1.1-.9 2-2 2H4c-1.1 0-2-.9-2-2V6c0-1.1.9-2 2-2z"/>
    <polyline points="22,6 12,13 2,6"/>
  </symbol>
  
  <symbol id="phone" viewBox="0 0 24 24" fill="none" stroke="currentColor" stroke-width="1.8" stroke-linecap="round" stroke-linejoin="round">
    <path d="M22 16.92v3a2 2 0 0 1-2.18 2 19.79 19.79 0 0 1-8.63-3.07 19.5 19.5 0 0 1-6-6 19.79 19.79 0 0 1-3.07-8.67A2 2 0 0 1 4.11 2h3a2 2 0 0 1 2 1.72 12.84 12.84 0 0 0 .7 2.81 2 2 0 0 1-.45 2.11L8.09 9.91a16 16 0 0 0 6 6l1.27-1.27a2 2 0 0 1 2.11-.45 12.84 12.84 0 0 0 2.81.7A2 2 0 0 1 22 16.92z"/>
  </symbol>
  
  <!-- Analysis & AI Icons -->
  <symbol id="brain" viewBox="0 0 24 24" fill="none" stroke="currentColor" stroke-width="1.8" stroke-linecap="round" stroke-linejoin="round">
    <path d="M9.5 2A2.5 2.5 0 0 1 12 4.5v15a2.5 2.5 0 0 1-4.96.44 2.5 2.5 0 0 1-2.96-3.08 3 3 0 0 1-.34-5.58 2.5 2.5 0 0 1 1.32-4.24 2.5 2.5 0 0 1 1.98-3A2.5 2.5 0 0 1 9.5 2Z"/>
    <path d="M14.5 2A2.5 2.5 0 0 0 12 4.5v15a2.5 2.5 0 0 0 4.96.44 2.5 2.5 0 0 0 2.96-3.08 3 3 0 0 0 .34-5.58 2.5 2.5 0 0 0-1.32-4.24 2.5 2.5 0 0 0-1.98-3A2.5 2.5 0 0 0 14.5 2Z"/>
  </symbol>
  
  <!-- Menu & Navigation -->
  <symbol id="menu" viewBox="0 0 24 24" fill="none" stroke="currentColor" stroke-width="1.8" stroke-linecap="round" stroke-linejoin="round">
    <line x1="3" y1="6" x2="21" y2="6"/>
    <line x1="3" y1="12" x2="21" y2="12"/>
    <line x1="3" y1="18" x2="21" y2="18"/>
  </symbol>
  
  <!-- Additional Action Icons -->
  <symbol id="download" viewBox="0 0 24 24" fill="none" stroke="currentColor" stroke-width="1.8" stroke-linecap="round" stroke-linejoin="round">
    <path d="M21 15v4a2 2 0 0 1-2 2H5a2 2 0 0 1-2-2v-4"/>
    <polyline points="7,10 12,15 17,10"/>
    <line x1="12" y1="15" x2="12" y2="3"/>
  </symbol>
  
  <symbol id="trash" viewBox="0 0 24 24" fill="none" stroke="currentColor" stroke-width="1.8" stroke-linecap="round" stroke-linejoin="round">
    <polyline points="3,6 5,6 21,6"/>
    <path d="M19 6v14a2 2 0 0 1-2 2H7a2 2 0 0 1-2-2V6m3 0V4a2 2 0 0 1 2-2h4a2 2 0 0 1 2 2v2"/>
    <line x1="10" y1="11" x2="10" y2="17"/>
    <line x1="14" y1="11" x2="14" y2="17"/>
  </symbol>
  
  <symbol id="edit" viewBox="0 0 24 24" fill="none" stroke="currentColor" stroke-width="1.8" stroke-linecap="round" stroke-linejoin="round">
    <path d="M11 4H4a2 2 0 0 0-2 2v14a2 2 0 0 0 2 2h14a2 2 0 0 0 2-2v-7"/>
    <path d="M18.5 2.5a2.121 2.121 0 0 1 3 3L12 15l-4 1 1-4 9.5-9.5z"/>
  </symbol>
  
  <symbol id="paperclip" viewBox="0 0 24 24" fill="none" stroke="currentColor" stroke-width="1.8" stroke-linecap="round" stroke-linejoin="round">
    <path d="M21.44 11.05l-9.19 9.19a6 6 0 0 1-8.49-8.49l9.19-9.19a4 4 0 0 1 5.66 5.66L9.64 16.2a2 2 0 0 1-2.83-2.83l8.49-8.49"/>
  </symbol>
  
  <symbol id="microphone" viewBox="0 0 24 24" fill="none" stroke="currentColor" stroke-width="1.8" stroke-linecap="round" stroke-linejoin="round">
    <path d="M12 1a3 3 0 0 0-3 3v8a3 3 0 0 0 6 0V4a3 3 0 0 0-3-3z"/>
    <path d="M19 10v2a7 7 0 0 1-14 0v-2"/>
    <line x1="12" y1="19" x2="12" y2="23"/>
    <line x1="8" y1="23" x2="16" y2="23"/>
  </symbol>
</svg>